<mxfile host="app.diagrams.net" modified="2022-02-04T15:16:47.139Z" agent="5.0 (X11; Linux x86_64) AppleWebKit/537.36 (KHTML, like Gecko) Chrome/98.0.4758.80 Safari/537.36" etag="UHlgroKFOrCKkIqdPQJy" version="16.5.3" type="github">
  <diagram id="pDYDXYN9Q3LmjtqCMojT" name="Page-1">
    <mxGraphModel dx="1350" dy="768" grid="1" gridSize="10" guides="1" tooltips="1" connect="1" arrows="1" fold="1" page="1" pageScale="1" pageWidth="850" pageHeight="1100" math="0" shadow="0">
      <root>
        <mxCell id="0" />
        <mxCell id="1" parent="0" />
        <mxCell id="EM3Ahry99gSJB8rL9QZf-2" value="https://medium.com/jspoint/working-with-files-i-o-in-an-electron-application-b4d2de403f54" style="text;html=1;strokeColor=none;fillColor=none;align=center;verticalAlign=middle;whiteSpace=wrap;rounded=0;" vertex="1" parent="1">
          <mxGeometry width="490" height="30" as="geometry" />
        </mxCell>
      </root>
    </mxGraphModel>
  </diagram>
</mxfile>
